HIERARCHY
ROOT hip
{
  OFFSET 0 0 0
  CHANNELS 6 Xposition Yposition Zposition Zrotation Yrotation Xrotation
  JOINT abdomen
  {
    OFFSET 0 20.6881 -0.73152
    CHANNELS 3 Zrotation Xrotation Yrotation
    JOINT chest
    {
      OFFSET 0 11.7043 -0.48768
      CHANNELS 3 Zrotation Xrotation Yrotation
      JOINT neck
      {
        OFFSET 0 22.1894 -2.19456
        CHANNELS 3 Zrotation Xrotation Yrotation
        JOINT head
        {
          OFFSET -0.24384 7.07133 1.2192
          CHANNELS 3 Zrotation Xrotation Yrotation
          JOINT leftEye
          {
            OFFSET 4.14528 8.04674 8.04672
            CHANNELS 3 Zrotation Xrotation Yrotation
            End Site
            {
              OFFSET 1 0 0
            }
          }
          JOINT rightEye
          {
            OFFSET -3.6576 8.04674 8.04672
            CHANNELS 3 Zrotation Xrotation Yrotation
            End Site
            {
              OFFSET 1 0 0
            }
          }
        }
      }
      JOINT rCollar
      {
        OFFSET -2.68224 19.2634 -4.8768
        CHANNELS 3 Zrotation Xrotation Yrotation
        JOINT rShldr
        {
          OFFSET -8.77824 -1.95073 1.46304
          CHANNELS 3 Zrotation Xrotation Yrotation
          JOINT rForeArm
          {
            OFFSET -28.1742 -1.7115 0.48768
            CHANNELS 3 Zrotation Xrotation Yrotation
            JOINT rHand
            {
              OFFSET -22.5879 0.773209 7.07136
              CHANNELS 3 Zrotation Xrotation Yrotation
              JOINT rThumb1
              {
                OFFSET -1.2192 -0.487915 3.41376
                CHANNELS 3 Zrotation Xrotation Yrotation
                JOINT rThumb2
                {
                  OFFSET -3.37035 -0.52449 3.41376
                  CHANNELS 3 Zrotation Xrotation Yrotation
                  End Site
                  {
                    OFFSET -1.78271 -1.18214 1.43049
                  }
                }
              }
              JOINT rIndex1
              {
                OFFSET -7.75947 0.938293 5.60832
                CHANNELS 3 Zrotation Xrotation Yrotation
                JOINT rIndex2
                {
                  OFFSET -2.54057 -0.884171 1.56538
                  CHANNELS 3 Zrotation Xrotation Yrotation
                  End Site
                  {
                    OFFSET -1.62519 -0.234802 1.16502
                  }
                }
              }
              JOINT rMid1
              {
                OFFSET -8.24714 1.18213 3.41376
                CHANNELS 3 Zrotation Xrotation Yrotation
                JOINT rMid2
                {
                  OFFSET -3.10165 -0.590103 1.0647
                  CHANNELS 3 Zrotation Xrotation Yrotation
                  End Site
                  {
                    OFFSET -2.48547 -0.328903 0.83742
                  }
                }
              }
              JOINT rRing1
              {
                OFFSET -8.82822 0.546677 1.51678
                CHANNELS 3 Zrotation Xrotation Yrotation
                JOINT rRing2
                {
                  OFFSET -2.60934 -0.819778 -0.0198488
                  CHANNELS 3 Zrotation Xrotation Yrotation
                  End Site
                  {
                    OFFSET -2.33842 -0.294052 0.168128
                  }
                }
              }
              JOINT rPinky1
              {
                OFFSET -8.27202 -0.0477905 -0.4584
                CHANNELS 3 Zrotation Xrotation Yrotation
                JOINT rPinky2
                {
                  OFFSET -1.82734 -0.647385 -0.700984
                  CHANNELS 3 Zrotation Xrotation Yrotation
                  End Site
                  {
                    OFFSET -1.69225 -0.51767 -0.607171
                  }
                }
              }
            }
          }
        }
      }
      JOINT lCollar
      {
        OFFSET 2.68224 19.2634 -4.8768
        CHANNELS 3 Zrotation Xrotation Yrotation
        JOINT lShldr
        {
          OFFSET 8.77824 -1.95073 1.46304
          CHANNELS 3 Zrotation Xrotation Yrotation
          JOINT lForeArm
          {
            OFFSET 28.1742 -1.7115 0.48768
            CHANNELS 3 Zrotation Xrotation Yrotation
            JOINT lHand
            {
              OFFSET 22.5879 0.773209 7.07136
              CHANNELS 3 Zrotation Xrotation Yrotation
              JOINT lThumb1
              {
                OFFSET 1.2192 -0.487915 3.41376
                CHANNELS 3 Zrotation Xrotation Yrotation
                JOINT lThumb2
                {
                  OFFSET 3.37035 -0.52449 3.41376
                  CHANNELS 3 Zrotation Xrotation Yrotation
                  End Site
                  {
                    OFFSET 1.78271 -1.18214 1.43049
                  }
                }
              }
              JOINT lIndex1
              {
                OFFSET 7.75947 0.938293 5.60832
                CHANNELS 3 Zrotation Xrotation Yrotation
                JOINT lIndex2
                {
                  OFFSET 2.54057 -0.884171 1.56538
                  CHANNELS 3 Zrotation Xrotation Yrotation
                  End Site
                  {
                    OFFSET 1.62519 -0.234802 1.16502
                  }
                }
              }
              JOINT lMid1
              {
                OFFSET 8.24714 1.18213 3.41376
                CHANNELS 3 Zrotation Xrotation Yrotation
                JOINT lMid2
                {
                  OFFSET 3.10165 -0.590103 1.0647
                  CHANNELS 3 Zrotation Xrotation Yrotation
                  End Site
                  {
                    OFFSET 2.48547 -0.328903 0.83742
                  }
                }
              }
              JOINT lRing1
              {
                OFFSET 8.82822 0.546677 1.51678
                CHANNELS 3 Zrotation Xrotation Yrotation
                JOINT lRing2
                {
                  OFFSET 2.60934 -0.819778 -0.0198488
                  CHANNELS 3 Zrotation Xrotation Yrotation
                  End Site
                  {
                    OFFSET 2.33842 -0.294052 0.168128
                  }
                }
              }
              JOINT lPinky1
              {
                OFFSET 8.27202 -0.0477905 -0.4584
                CHANNELS 3 Zrotation Xrotation Yrotation
                JOINT lPinky2
                {
                  OFFSET 1.82734 -0.647385 -0.700984
                  CHANNELS 3 Zrotation Xrotation Yrotation
                  End Site
                  {
                    OFFSET 1.69225 -0.51767 -0.607171
                  }
                }
              }
            }
          }
        }
      }
    }
  }
  JOINT rButtock
  {
    OFFSET -8.77824 4.35084 1.2192
    CHANNELS 3 Zrotation Xrotation Yrotation
    JOINT rThigh
    {
      OFFSET 0 -1.70687 -2.19456
      CHANNELS 3 Zrotation Xrotation Yrotation
      JOINT rShin
      {
        OFFSET 0 -36.8199 0.73152
        CHANNELS 3 Zrotation Xrotation Yrotation
        JOINT rFoot
        {
          OFFSET 0.73152 -45.1104 -5.12064
          CHANNELS 3 Zrotation Xrotation Yrotation
          End Site
          {
            OFFSET -1.1221 -3.69964 12.103
          }
        }
      }
    }
  }
  JOINT lButtock
  {
    OFFSET 8.77824 4.35084 1.2192
    CHANNELS 3 Zrotation Xrotation Yrotation
    JOINT lThigh
    {
      OFFSET 0 -1.70687 -2.19456
      CHANNELS 3 Zrotation Xrotation Yrotation
      JOINT lShin
      {
        OFFSET 0 -36.8199 0.73152
        CHANNELS 3 Zrotation Xrotation Yrotation
        JOINT lFoot
        {
          OFFSET -0.73152 -45.1104 -5.12064
          CHANNELS 3 Zrotation Xrotation Yrotation
          End Site
          {
            OFFSET 1.1221 -3.69964 12.103
          }
        }
      }
    }
  }
}
MOTION
Frames:	8
Frame Time:	0.00833333
10.15415 0.661522 -38.6419 -546.136 -165.40056 542.08136 -0.297831 13.555499 13.79166 -0.494627 -12.886729 3.935412 1.168047 11.947559 10.409251 2.66768 -19.778078 21.553144 0.304836 -0.199026 -0.251454 -0.221494 -0.092599 -0.161051 0.08861 0.093523 0.226334 4.82292 77.05821 63.199276 -26.509089 -42.737617 90.08064 -100.64344 -81.5497 -108.635124 0.055566 0.0566 0.476656 -0.119977 -0.154939 -0.241464 0.444733 0.252444 0.299711 7.368226 5.035908 0.387261 -0.246883 0.063179 -0.220414 2.61159 0.957818 -0.148394 -0.1419 -0.132186 0.008186 9.913529 0.560093 -0.414466 -0.273465 -0.038875 0.283462 1.639811 -0.314808 -0.049968 0.127598 0.097428 0.083854 -63.58982 0.833079 -35.593754 28.225414 -36.847847 -78.29541 -0.150694 7.519162 -0.98847 -0.078543 0.013781 -0.406029 -0.33385 0.169905 0.040443 -0.127972 0.193347 -0.057587 -7.187244 4.755866 -0.22245 -0.004492 -0.064319 0.491263 -2.437745 0.563975 -0.301325 -0.039888 -0.278393 -0.072643 -10.184593 0.449974 0.150385 -0.3194 0.169128 -0.327182 -1.933177 -0.855288 0.098853 -0.170689 0.035147 0.146213 -14.150617 -42.944435 -29.401403 -21.795977 86.9861 22.822182 -18.946789 -26.186125 -27.910976 0.190989 0.100817 0.061354 70.86162 -46.746895 63.245785 1.770414 70.83528 -2.884413 0.019722 6.81957 -2.889083
10.249502 0.677425 -38.898018 -546.39484 -165.48618 542.4478 -0.346862 13.47404 13.804576 -0.437058 -12.948737 3.959474 1.176717 12.099648 10.509572 2.734551 -20.027752 21.726727 0.296217 -0.23888 -0.264831 -0.219788 -0.067892 -0.1758 0.077833 0.090119 0.208406 5.212109 77.25627 62.65129 -26.59236 -42.84695 90.31175 -100.214355 -81.49642 -108.19904 0.073112 0.022629 0.479634 -0.128476 -0.144595 -0.274382 0.468847 0.224362 0.374162 7.361854 5.047762 0.363813 -0.248554 0.066625 -0.22825 2.599819 0.969299 -0.124341 -0.145399 -0.129197 0.017267 9.89326 0.545961 -0.40736 -0.290227 -0.010147 0.272161 1.658053 -0.331734 -0.038382 0.123663 0.08293 0.073236 -63.59465 0.763542 -35.77397 28.319471 -36.894417 -78.36231 -0.334642 7.224231 -0.859658 -0.039374 -0.005977 -0.459397 -0.346077 0.186232 0.085914 -0.125537 0.15651 -0.062693 -7.161262 4.76841 -0.238057 0.012325 -0.072898 0.485022 -2.433884 0.545744 -0.280974 -0.00793 -0.229215 -0.058624 -10.165732 0.435045 0.139112 -0.333756 0.159352 -0.318779 -1.941084 -0.853703 0.088476 -0.162254 0.044911 0.156079 -14.309251 -42.919476 -29.685669 -22.908888 87.13764 24.02893 -19.203074 -26.22569 -27.951942 0.177215 0.113745 0.062698 71.41067 -46.79537 63.853546 1.837691 71.50425 -3.009177 0.157858 6.0756 -2.85947
10.309893 0.719667 -39.1398 -546.6166 -165.49516 542.6777 -0.356112 13.348043 13.802943 -0.389288 -13.00526 3.976993 1.169942 12.243773 10.632502 2.775351 -20.251549 21.898132 0.269189 -0.26275 -0.257796 -0.213191 -0.047788 -0.187441 0.065418 0.082242 0.179378 5.699485 77.41493 62.01795 -26.65134 -42.973545 90.55405 -99.72183 -81.43987 -107.65058 0.077259 -0.009739 0.464304 -0.126184 -0.124506 -0.297212 0.47039 0.189783 0.447696 7.348596 5.063828 0.343173 -0.249556 0.057935 -0.215188 2.596451 0.977176 -0.11035 -0.150203 -0.105864 0.006879 9.875693 0.539331 -0.391529 -0.303418 -0.002764 0.236868 1.676454 -0.364286 -0.021036 0.114693 0.071963 0.056455 -63.586617 0.625983 -35.941414 28.410774 -36.958633 -78.51559 -0.585831 7.06457 -0.737688 0.000879 -0.016031 -0.524646 -0.3563 0.216099 0.121457 -0.117548 0.115438 -0.068155 -7.16014 4.787592 -0.256333 0.040995 -0.079223 0.467259 -2.426253 0.546568 -0.247747 0.028669 -0.195863 -0.047943 -10.163227 0.422306 0.137406 -0.334015 0.141301 -0.295442 -1.944946 -0.84427 0.090793 -0.160984 0.063579 0.169022 -14.460484 -42.842564 -29.894287 -23.84536 87.18187 25.05485 -19.42312 -26.207426 -27.981201 0.158083 0.126946 0.046869 72.008545 -46.82084 64.4025 2.027628 72.0588 -3.087112 0.243293 5.478334 -2.771258
10.33081 0.77694 -39.36863 -546.79254 -165.45605 542.8541 -0.33135 13.178422 13.778669 -0.341032 -13.055205 3.98851 1.151618 12.378896 10.760643 2.8008 -20.443077 22.046268 0.227014 -0.270944 -0.239011 -0.198962 -0.035209 -0.198308 0.054819 0.072574 0.143576 6.258578 77.507904 61.337402 -26.685041 -43.09828 90.78054 -99.1517 -81.38994 -107.01098 0.072015 -0.040362 0.433118 -0.118397 -0.098175 -0.309867 0.454475 0.155464 0.51642 7.332073 5.081409 0.331235 -0.252804 0.042658 -0.188257 2.601842 0.981124 -0.103769 -0.154163 -0.073787 -0.021815 9.860016 0.538945 -0.369441 -0.310441 -0.01529 0.181837 1.697824 -0.404598 0.001566 0.104292 0.063832 0.037757 -63.550896 0.456556 -36.1229 28.491314 -37.01161 -78.71234 -0.85496 7.039608 -0.637495 0.038871 -0.016177 -0.592308 -0.362454 0.2531 0.14084 -0.104268 0.074014 -0.074603 -7.174607 4.813575 -0.274102 0.075751 -0.081354 0.436736 -2.418121 0.561174 -0.207456 0.06422 -0.17534 -0.044646 -10.174354 0.412095 0.144857 -0.322449 0.117201 -0.261664 -1.950696 -0.828459 0.1052 -0.164206 0.084634 0.181374 -14.633283 -42.71554 -30.0236 -24.688528 87.14573 25.971304 -19.59843 -26.168438 -28.028921 0.135184 0.136891 0.01553 72.64279 -46.82866 64.88934 2.322314 72.55995 -3.160842 0.282492 4.965673 -2.669198
10.308613 0.835691 -39.58483 -546.9408 -165.40631 543.03937 -0.278265 12.985636 13.731017 -0.289413 -13.095223 3.994372 1.126149 12.498758 10.878726 2.816962 -20.591396 22.157724 0.175877 -0.263965 -0.214107 -0.180256 -0.031346 -0.210116 0.046866 0.061243 0.103684 6.862785 77.51495 60.64962 -26.700346 -43.214165 90.98251 -98.54354 -81.34182 -106.33654 0.062569 -0.068195 0.390948 -0.109027 -0.069389 -0.31061 0.42706 0.123661 0.574876 7.315272 5.097289 0.328844 -0.258593 0.024818 -0.155436 2.613856 0.979839 -0.10316 -0.155102 -0.04368 -0.064233 9.84575 0.543684 -0.343254 -0.310208 -0.042467 0.113778 1.723999 -0.446016 0.026554 0.097716 0.056744 0.021414 -63.474976 0.304312 -36.32106 28.545727 -37.036053 -78.907555 -1.100761 7.138226 -0.585325 0.071491 -0.008901 -0.654228 -0.36499 0.288406 0.143175 -0.088993 0.034726 -0.08286 -7.196588 4.843809 -0.289782 0.110593 -0.078321 0.39486 -2.408926 0.583652 -0.167802 0.092487 -0.165132 -0.048719 -10.19393 0.404426 0.161044 -0.302854 0.090366 -0.221457 -1.95925 -0.810205 0.128553 -0.16852 0.10362 0.191665 -14.814274 -42.544376 -30.08842 -25.463821 87.03871 26.798412 -19.724144 -26.12557 -28.11047 0.111939 0.143195 -0.026886 73.27167 -46.81156 65.311356 2.698284 73.03669 -3.263644 0.290372 4.512926 -2.567703
10.24551 0.882839 -39.787025 -547.0742 -165.36853 543.2239 -0.200087 12.794535 13.663366 -0.236653 -13.121689 3.993275 1.096025 12.597004 10.972617 2.830258 -20.68747 22.223469 0.125138 -0.243134 -0.185428 -0.163406 -0.036559 -0.221908 0.040688 0.047442 0.062449 7.481467 77.44926 59.998657 -26.70408 -43.319355 91.15585 -97.95849 -81.27596 -105.68293 0.053945 -0.092163 0.344243 -0.099631 -0.042208 -0.298521 0.394194 0.095352 0.617674 7.299646 5.109601 0.333305 -0.263391 0.007286 -0.123963 2.628396 0.973351 -0.109774 -0.152318 -0.020168 -0.111002 9.833766 0.55152 -0.314306 -0.305646 -0.078338 0.041899 1.753576 -0.483848 0.050026 0.099752 0.049213 0.011936 -63.380043 0.19605 -36.512466 28.562035 -37.02878 -79.06443 -1.290529 7.334071 -0.597301 0.096396 0.001225 -0.705309 -0.366022 0.316247 0.131607 -0.077747 0.00126 -0.093566 -7.221568 4.872795 -0.303676 0.13963 -0.070698 0.345474 -2.397441 0.610035 -0.135714 0.109755 -0.163266 -0.056585 -10.216417 0.398765 0.184312 -0.281563 0.06445 -0.178291 -1.967209 -0.794324 0.15597 -0.171703 0.118354 0.198863 -14.975229 -42.34098 -30.115084 -26.166775 86.87983 27.53225 -19.80219 -26.09072 -28.213215 0.091843 0.146142 -0.074163 73.85326 -46.75881 65.676216 3.108111 73.494965 -3.395666 0.279663 4.119211 -2.467197
10.148674 0.908595 -39.970898 -547.2017 -165.33931 543.3674 -0.100767 12.623043 13.579362 -0.18649 -13.132907 3.982641 1.064839 12.674247 11.030814 2.846433 -20.732018 22.241716 0.084355 -0.21043 -0.153927 -0.154382 -0.051274 -0.232428 0.034392 0.031104 0.022985 8.098032 77.35335 59.410023 -26.701147 -43.413708 91.297615 -97.44515 -81.188484 -105.09322 0.050924 -0.111159 0.29853 -0.091733 -0.019394 -0.275901 0.361434 0.072671 0.641699 7.285851 5.118796 0.340504 -0.263054 -0.007287 -0.099729 2.640892 0.963902 -0.128324 -0.147937 -0.001856 -0.150322 9.826561 0.560221 -0.284264 -0.303308 -0.117107 -0.024811 1.783564 -0.516659 0.070129 0.113518 0.040857 0.01458 -63.302044 0.134701 -36.682186 28.538912 -36.99573 -79.16736 -1.393702 7.583696 -0.679231 0.112748 0.010248 -0.744914 -0.366856 0.335722 0.110478 -0.077124 -0.021674 -0.106237 -7.249496 4.894126 -0.316176 0.160106 -0.060081 0.293326 -2.383776 0.638694 -0.115953 0.114374 -0.16702 -0.064741 -10.238565 0.394623 0.212129 -0.26523 0.041484 -0.135736 -1.971792 -0.783966 0.182852 -0.17224 0.128847 0.201955 -15.096519 -42.12282 -30.13783 -26.788328 86.70399 28.180264 -19.846073 -26.077879 -28.308699 0.074686 0.145501 -0.120971 74.37488 -46.66844 66.01012 3.490824 73.93012 -3.535527 0.260852 3.787995 -2.367081
10.027095 0.9068 -40.128555 -547.33984 -165.29796 543.465 0.011133 12.478143 13.480115 -0.142837 -13.12979 3.960613 1.039593 12.739406 11.044724 2.868768 -20.736202 22.219688 0.059994 -0.166602 -0.121591 -0.156905 -0.077569 -0.24298 0.025628 0.012698 -0.012034 8.727016 77.271065 58.86936 -26.697296 -43.501026 91.412384 -97.03476 -81.11237 -104.60885 0.058645 -0.124062 0.256325 -0.088379 -0.002301 -0.247443 0.333543 0.059081 0.646158 7.274605 5.126154 0.347503 -0.255848 -0.015364 -0.087539 2.647324 0.955003 -0.164813 -0.147579 0.015985 -0.17179 9.827584 0.567891 -0.255946 -0.311292 -0.152216 -0.0803 1.81253 -0.545495 0.08945 0.141066 0.030429 0.035215 -63.256615 0.112936 -36.858505 28.482931 -36.940575 -79.21842 -1.37825 7.835982 -0.835253 0.120802 0.016645 -0.775276 -0.366807 0.348994 0.082889 -0.093473 -0.0304 -0.119042 -7.283744 4.90089 -0.326358 0.173914 -0.048819 0.241924 -2.369353 0.669581 -0.111594 0.104514 -0.172389 -0.073361 -10.260314 0.392002 0.241301 -0.257656 0.02157 -0.09774 -1.974146 -0.779026 0.206463 -0.168018 0.136646 0.200197 -15.172641 -41.90562 -30.190706 -27.342493 86.55306 28.79993 -19.883001 -26.106337 -28.376394 0.054565 0.141063 -0.166305 74.86193 -46.544693 66.360374 3.788755 74.33475 -3.662427 0.244047 3.505932 -2.274277
